<?xml version="1.0" standalone="no"?><!DOCTYPE svg PUBLIC "-//W3C//DTD SVG 1.1//EN" "http://www.w3.org/Graphics/SVG/1.1/DTD/svg11.dtd"><svg t="1500554054686" class="icon" style="" viewBox="0 0 1024 1024" version="1.1" xmlns="http://www.w3.org/2000/svg" p-id="4405" xmlns:xlink="http://www.w3.org/1999/xlink" width="200" height="200"><defs><style type="text/css"></style></defs><path d="M818.718125 747.844449c24.190959-13.047154 40.286542-34.269501 66.11479-42.496883-69.390393 102.360296-137.041166 182.977381-283.343253 193.608509-119.071909 8.65717-224.851071-38.507012-297.516044-89.723487-18.368346-12.9438-40.093137-26.698059-51.943023-37.780465-4.031826-3.765767-0.859577-14.899338-4.727675-18.890232-17.365506-17.897625-54.143131-48.504714-70.833255-75.550697-7.858992-12.728906-11.768021-32.244378-18.890232-47.225581-30.944779-65.112973-54.716182-183.989431-23.607674-273.898137 8.084119-23.382547 28.488845-46.672996 42.497906-66.115813 14.479783-20.107967 29.829376-37.176714 42.497906-61.388139-3.213181 51.29834-23.791869 83.440387-18.890232 151.111626 11.757788 162.285107 120.064516 285.226137 236.127905 354.176508 2.619664 1.565658 12.218276-2.210341 14.162558 0 7.930623 9.015328 26.738991 18.061354 56.670697 28.335349C596.66068 792.798291 737.487056 791.631722 818.718125 747.844449z" fill="#13227a" p-id="4406"></path><path d="M884.833939 502.281661c-33.861202 75.509764-102.125959 145.473209-236.127905 136.949069-179.191148-11.399631-355.803565-210.524784-278.615579-391.956973 7.091512-16.679891 21.960151-31.630395 33.05279-47.225581 10.417257-14.643512 20.077268-32.520671 37.780465-42.508139-77.095889 160.024623 61.429071 325.749062 184.17465 377.794415C698.878736 566.627155 838.662363 549.937031 884.833939 502.281661z" fill="#13227a" p-id="4407"></path><path d="M596.763011 171.712827c1.524726 135.864364 166.737512 237.826594 297.516044 170.001859-38.281885 98.749048-188.748828 101.522208-273.90837 28.335349-71.273277-61.265342-86.878696-175.537945-18.879999-250.28023C614.50714 139.550313 596.558349 153.129586 596.763011 171.712827z" fill="#13227a" p-id="4408"></path></svg>