<?xml version="1.0" standalone="no"?><!DOCTYPE svg PUBLIC "-//W3C//DTD SVG 1.1//EN" "http://www.w3.org/Graphics/SVG/1.1/DTD/svg11.dtd"><svg t="1500614165763" class="icon" style="" viewBox="0 0 1024 1024" version="1.1" xmlns="http://www.w3.org/2000/svg" p-id="8094" xmlns:xlink="http://www.w3.org/1999/xlink" width="200" height="200"><defs><style type="text/css"></style></defs><path d="M512.008 512.008m-493.71 0a493.71 493.71 0 1 0 987.42 0 493.71 493.71 0 1 0-987.42 0Z" fill="#F7B239" p-id="8095"></path><path d="M252.612 771.388c-177.602-177.604-191.596-456.852-41.996-650.482A498.126 498.126 0 0 0 162.9 162.904c-192.802 192.802-192.802 505.396 0 698.198s505.396 192.802 698.198 0a498.68 498.68 0 0 0 41.998-47.716c-193.63 149.598-472.88 135.604-650.484-41.998z" fill="#E09B2D" p-id="8096"></path><path d="M944.702 530.3a18.3 18.3 0 0 1-18.3-18.3c0-99.954-36.234-196.56-102.024-272.012-65.162-74.734-154.666-123.746-252.018-138.012a18.298 18.298 0 0 1-15.454-20.758c1.466-10.002 10.786-16.91 20.758-15.452 105.986 15.53 203.4 68.86 274.298 150.17C923.568 298.056 963 403.2 963 512a18.296 18.296 0 0 1-18.298 18.3zM665.704 711.114H358.296c-63.666 0-115.28-51.61-115.28-115.28 0-63.666 51.61-115.28 115.28-115.28h307.41c63.666 0 115.28 51.61 115.28 115.28-0.002 63.668-51.616 115.28-115.282 115.28z" fill="#FFFFFF" p-id="8097"></path><path d="M665.704 480.558H358.296c-63.666 0-115.28 51.61-115.28 115.28 0 10.784 1.512 21.208 4.282 31.106 13.58-48.548 58.114-84.17 110.998-84.17h307.41c52.884 0 97.418 35.622 110.998 84.17a115.242 115.242 0 0 0 4.282-31.106c-0.002-63.668-51.614-115.28-115.282-115.28z" fill="#CCCCCC" p-id="8098"></path><path d="M292.42 366.274m-47.072 0a47.072 47.072 0 1 0 94.144 0 47.072 47.072 0 1 0-94.144 0Z" fill="#FFFFFF" p-id="8099"></path><path d="M730.768 366.274m-47.072 0a47.072 47.072 0 1 0 94.144 0 47.072 47.072 0 1 0-94.144 0Z" fill="#FFFFFF" p-id="8100"></path><path d="M511.998 0C229.682 0 0 229.682 0 512.002S229.682 1024 511.998 1024C794.318 1024 1024 794.318 1024 512.002 1024 229.682 794.32 0 511.998 0z m0 987.402c-262.136 0-475.4-213.262-475.4-475.4s213.264-475.404 475.4-475.404c262.138 0 475.404 213.264 475.404 475.404s-213.266 475.4-475.404 475.4z" fill="#333333" p-id="8101"></path><path d="M665.706 462.26H358.296c-73.656 0-133.578 59.924-133.578 133.578s59.924 133.578 133.578 133.578h307.41c73.656 0 133.576-59.924 133.576-133.578s-59.924-133.578-133.576-133.578z m95.222 115.276h-41.674l0.268-62.33c21.16 14.17 36.44 36.436 41.406 62.33z m-77.94-77.108l-0.332 77.108h-47.478l0.34-78.682h30.188c5.9 0.004 11.67 0.562 17.282 1.574z m-189.208 113.706l0.34 78.682h-67.206l-0.34-78.682h67.206z m-67.364-36.598l-0.34-78.682h67.206l0.34 78.682h-67.206z m103.962 36.598h68.044l-0.34 78.682H530.72l-0.342-78.682z m-0.158-36.598l-0.34-78.682h69.036l-0.34 78.682H530.22z m-140.742-78.678l0.34 78.682H342.34l-0.334-77.286c5.3-0.9 10.738-1.396 16.292-1.396h31.18z m-84.01 15.712l0.27 62.966h-42.668c5.044-26.292 20.732-48.834 42.398-62.966z m-42.398 99.564h42.828l0.274 63.418c-22.028-14.1-38.002-36.84-43.102-63.418z m79.76 77.434l-0.334-77.434h47.478l0.34 78.682h-32.016c-5.268 0-10.428-0.436-15.468-1.248z m291.85 1.248l0.34-78.682h47.478l-0.334 77.256c-5.354 0.92-10.848 1.424-16.46 1.424H634.68z m84.144-15.904l0.27-62.778h41.832c-5.018 26.176-20.586 48.634-42.102 62.778zM293.446 436.47c37.332 0 67.704-30.372 67.704-67.704s-30.372-67.704-67.704-67.704-67.704 30.372-67.704 67.704 30.374 67.704 67.704 67.704z m0-98.81c17.152 0 31.106 13.954 31.106 31.106s-13.954 31.106-31.106 31.106-31.106-13.954-31.106-31.106 13.956-31.106 31.106-31.106zM730.55 436.47c37.332 0 67.704-30.372 67.704-67.704s-30.372-67.704-67.704-67.704-67.704 30.372-67.704 67.704 30.372 67.704 67.704 67.704z m0-98.81c17.152 0 31.106 13.954 31.106 31.106s-13.954 31.106-31.106 31.106-31.106-13.954-31.106-31.106 13.954-31.106 31.106-31.106z" fill="#333333" p-id="8102"></path><path d="M512.008 79.296m-18.3 0a18.3 18.3 0 1 0 36.6 0 18.3 18.3 0 1 0-36.6 0Z" fill="#FFFFFF" p-id="8103"></path></svg>